/* XPM */
static char *_9948ffef11b4592ae2fa3b6c482cf49K5Ys7BtBIpIgsgN7[] = {
/* columns rows colors chars-per-pixel */
"32 32 86 1 ",
"  c #130000",
". c #170000",
"X c #190000",
"o c #1E0000",
"O c #230100",
"+ c #2A0201",
"@ c #2E0000",
"# c #350301",
"$ c #3A0000",
"% c #3E0000",
"& c #490000",
"* c #4E0503",
"= c #4E0C08",
"- c #5D0000",
"; c #5A0404",
": c #5D0B08",
"> c #590C09",
", c #660E09",
"< c #6C0A08",
"1 c #6A0D08",
"2 c #6F0C08",
"3 c #6C0D0D",
"4 c #730706",
"5 c #62130C",
"6 c #66130D",
"7 c #68110D",
"8 c #731508",
"9 c #7C140D",
"0 c #6D1B11",
"q c #731310",
"w c #741613",
"e c #751913",
"r c #721C13",
"t c #7D1D13",
"y c #791F16",
"u c #7F2318",
"i c #46332D",
"p c #92100F",
"a c #8B1515",
"s c #851914",
"d c #841F16",
"f c #821818",
"g c #812018",
"h c #8B231B",
"j c #892B18",
"k c #8B291D",
"l c #98271F",
"z c #9B3123",
"x c #963A25",
"c c #A72625",
"v c #A12E23",
"b c #AC2F20",
"n c #A53729",
"m c #AC3D2C",
"M c #C62B28",
"N c #C23D31",
"B c #E12E2B",
"V c #A8472D",
"C c #B2412F",
"Z c #BD4D36",
"A c #A75337",
"S c #BF5839",
"D c #D3452C",
"F c #C44C39",
"G c #C05B3B",
"H c #C8593D",
"J c #DD533D",
"K c #E74535",
"L c #FF4A39",
"P c #E9563D",
"I c #E0673B",
"U c #D55A41",
"Y c #FF5E41",
"T c #C76140",
"R c #D66849",
"E c #FD6645",
"W c #FF6A45",
"Q c #FF724B",
"! c #F58B5B",
"~ c #FF9066",
"^ c #FF9E61",
"/ c #FFA869",
"( c #FFAE76",
") c #FFBB8B",
"_ c #FFC281",
"` c #FFE3A0",
/* pixels */
"iiiiiiiiiiiiiiiiiiiiiiiiiiiiiiii",
"iiiiiiiiii##iiiiioii.iiiiiiiiiii",
"iiiiiiiii#)!#iiiii..f.iiiiiiiiii",
"iiiiiiiiii#)!#iooi.f.ii@@iiiiiii",
"iiiiiiiiiii#)!oBp.f.io@A@iiiiiii",
"iiiiiiiiiii#!--p&&&&otG@iiiiiiii",
"iiiiiiiiii#/-a;&`)!!GG#iiiiiiiii",
"iiiiiiiii#`!C;&`!Rx055#iiiiiiiii",
"iiiiiiii#`)!a&)!Tx0`)!!#iiiiiiii",
"iiiiiiii#)!za&!Gm0/SSxxG#iiiiiii",
"iiiiiii#`!Gs-$!Z0!k3;==xG#iiiiii",
"iiiiiii#)!na-$H0!k&&$Sx=+iiiiiii",
"iiiiiii#!Gs4-@vIk3;$SxjOiiiiiiii",
"iiiiiii#!Ga-$aUFS;3@xwj8+iiiiiii",
"iiiiiiioGz4-@NN!h3x5@778oiiiiiii",
"iiiiiiiio4a$ccUF!a!x&$&; iiiiiii",
"iiiiiiiiioc-$F!d!)/S&6&&.iiiiiii",
"iiiiiiiioNc--&-!)`/D%7u:&.iiiiii",
"iiiiiiiioNLK$MP1`_!D%gxr* iiiiii",
"iiiiiiiioNYK2$K^V^!,k$y:* iiiiii",
"iiiiiiiioJQ2K-^E^!FSq$7:* iiiiii",
"iiiiiiiiioY9YK-E^F!Ce>r:&.iiiiii",
"iiiiiiiiioJbWKN-E!FCky::&.iiiiii",
"iiiiiiiiioJY(W-E-FGzy7:&&.iiiiii",
"iiiiiiiiiioJY~KK<cn7y7:& iiiiiii",
"iiiiiiiiiiioJKYKPc3y7:&&Xiiiiiii",
"iiiiiiiiiiiiolNMcfy7:**.iiiiiiii",
"iiiiiiiiiiiiiofff777*&.iiiiiiiii",
"iiiiiiiiiiiiiio3377*& iiiiiiiiii",
"iiiiiiiiiiiiiiio.;&&Xiiiiiiiiiii",
"iiiiiiiiiiiiiiiiiX .iiiiiiiiiiii",
"iiiiiiiiiiiiiiiiiiiiiiiiiiiiiiii"
};
